<svg xmlns="http://www.w3.org/2000/svg" version="1.1" xmlns:xlink="http://www.w3.org/1999/xlink" xmlns:svgjs="http://svgjs.dev/svgjs" width="1000" height="224" viewBox="0 0 1000 224"><g transform="matrix(1,0,0,1,-0.6060516471915776,0.365272406059006)"><svg viewBox="0 0 396 89" data-background-color="#ffffff" preserveAspectRatio="xMidYMid meet" height="224" width="1000" xmlns="http://www.w3.org/2000/svg" xmlns:xlink="http://www.w3.org/1999/xlink"><defs></defs><g id="tight-bounds" transform="matrix(1,0,0,1,0.23999645228786903,-0.14513055419308785)"><svg viewBox="0 0 395.52 89.29026110838619" height="89.29026110838619" width="395.52"><g><svg viewBox="0 0 539.9342822591957 121.89237723577234" height="89.29026110838619" width="395.52"><g transform="matrix(1,0,0,1,144.41428225919577,37.66651382113821)"><svg viewBox="0 0 395.52 46.55934959349593" height="46.55934959349593" width="395.52"><g><svg viewBox="0 0 395.52 46.55934959349593" height="46.55934959349593" width="395.52"><g><svg viewBox="0 0 395.52 46.55934959349593" height="46.55934959349593" width="395.52"><g transform="matrix(1,0,0,1,0,0)"><svg width="395.52" viewBox="3.6500000953674316 -34.349998474121094 295.17999267578125 34.75" height="46.55934959349593" data-palette-color="#8bc53f"><path d="M13.6-11.95L13.6-11.95 8.8-11.95 8.8 0 3.65 0 3.65-33.7 13.3-33.7Q19.1-33.7 22.5-30.63 25.9-27.55 25.9-22.75 25.9-17.95 22.48-14.95 19.05-11.95 13.6-11.95ZM13.1-29.45L13.1-29.45 8.8-29.45 8.8-16.2 13.2-16.2Q16.85-16.2 18.78-18 20.7-19.8 20.7-22.75L20.7-22.75Q20.7-25.85 18.75-27.65 16.8-29.45 13.1-29.45ZM40.7-29.4L40.7-29.4 36.3-29.4 36.3-17.1 40.95-17.1Q44.15-17.1 45.8-18.78 47.45-20.45 47.45-23.25L47.45-23.25Q47.45-29.4 40.7-29.4ZM36.3-12.8L36.3 0 31.15 0 31.15-33.7 40.55-33.7Q46.35-33.7 49.5-30.88 52.65-28.05 52.65-23.2L52.65-23.2Q52.6-19.65 50.85-17.18 49.1-14.7 46-13.6L46-13.6 54.8 0 48.65 0 40.75-12.8 36.3-12.8ZM85-29.63Q89.15-24.9 89.15-17 89.15-9.1 84.97-4.35 80.8 0.4 73.7 0.4L73.7 0.4Q66.65 0.4 62.42-4.35 58.2-9.1 58.2-17L58.2-17Q58.2-24.85 62.4-29.6 66.59-34.35 73.65-34.35L73.65-34.35Q80.84-34.35 85-29.63ZM66.27-26.18Q63.6-22.8 63.6-17 63.6-11.2 66.34-7.8 69.09-4.4 73.7-4.4L73.7-4.4Q78.45-4.4 81.09-7.75 83.75-11.1 83.75-17L83.75-17Q83.75-22.85 81.07-26.2 78.4-29.55 73.65-29.55L73.65-29.55Q68.95-29.55 66.27-26.18ZM122.14-3.1L122.19-2.75Q117.84 0.4 111.29 0.4L111.29 0.4Q103.39 0.4 98.57-4.25 93.74-8.9 93.74-16.9L93.74-16.9Q93.74-24.65 98.62-29.48 103.49-34.3 110.99-34.3L110.99-34.3Q116.84-34.3 120.79-32.05L120.79-32.05 120.79-26.75Q116.49-29.45 111.19-29.45L111.19-29.45Q105.79-29.45 102.47-26 99.14-22.55 99.14-16.9L99.14-16.9Q99.14-11.1 102.42-7.75 105.69-4.4 111.44-4.4L111.44-4.4Q114.44-4.4 117.14-5.5L117.14-5.5 117.14-14.8 110.29-14.8 110.29-19.25 122.19-19.25 122.19-3.1 122.14-3.1ZM138.69-29.4L138.69-29.4 134.29-29.4 134.29-17.1 138.94-17.1Q142.14-17.1 143.79-18.78 145.44-20.45 145.44-23.25L145.44-23.25Q145.44-29.4 138.69-29.4ZM134.29-12.8L134.29 0 129.14 0 129.14-33.7 138.54-33.7Q144.34-33.7 147.49-30.88 150.64-28.05 150.64-23.2L150.64-23.2Q150.59-19.65 148.84-17.18 147.09-14.7 143.99-13.6L143.99-13.6 152.79 0 146.64 0 138.74-12.8 134.29-12.8ZM176.99-4.3L176.99 0 157.54 0 157.54-33.7 176.74-33.7 176.74-29.4 162.69-29.4 162.69-19 175.14-19 175.14-14.7 162.69-14.7 162.69-4.3 176.99-4.3ZM203.19-9.2L203.19-9.2Q203.19-4.75 200.04-2.2 196.89 0.35 191.89 0.35L191.89 0.35Q186.34 0.35 182.69-1.8L182.69-1.8 182.69-7.15Q186.64-4.2 191.84-4.2L191.84-4.2Q194.59-4.2 196.19-5.48 197.79-6.75 197.79-9L197.79-9Q197.79-10.35 196.84-11.48 195.89-12.6 194.79-13.18 193.69-13.75 191.49-14.75L191.49-14.75Q190.19-15.35 189.66-15.6 189.14-15.85 187.94-16.5 186.74-17.15 186.16-17.6 185.59-18.05 184.74-18.85 183.89-19.65 183.51-20.45 183.14-21.25 182.81-22.33 182.49-23.4 182.49-24.65L182.49-24.65Q182.49-28.95 185.61-31.45 188.74-33.95 193.69-33.95L193.69-33.95Q198.24-33.95 201.44-32.35L201.44-32.35 201.44-27.25Q198.09-29.35 193.84-29.35L193.84-29.35Q191.09-29.35 189.51-28.13 187.94-26.9 187.94-24.9 187.94-22.9 189.49-21.7 191.04-20.5 194.24-19.1L194.24-19.1Q196.34-18.2 197.51-17.55 198.69-16.9 200.21-15.73 201.74-14.55 202.46-12.93 203.19-11.3 203.19-9.2ZM229.23-9.2L229.23-9.2Q229.23-4.75 226.08-2.2 222.93 0.35 217.93 0.35L217.93 0.35Q212.38 0.35 208.73-1.8L208.73-1.8 208.73-7.15Q212.68-4.2 217.88-4.2L217.88-4.2Q220.63-4.2 222.23-5.48 223.83-6.75 223.83-9L223.83-9Q223.83-10.35 222.88-11.48 221.93-12.6 220.83-13.18 219.73-13.75 217.53-14.75L217.53-14.75Q216.23-15.35 215.71-15.6 215.18-15.85 213.98-16.5 212.78-17.15 212.21-17.6 211.63-18.05 210.78-18.85 209.93-19.65 209.56-20.45 209.18-21.25 208.86-22.33 208.53-23.4 208.53-24.65L208.53-24.65Q208.53-28.95 211.66-31.45 214.78-33.95 219.73-33.95L219.73-33.95Q224.28-33.95 227.48-32.35L227.48-32.35 227.48-27.25Q224.13-29.35 219.88-29.35L219.88-29.35Q217.13-29.35 215.56-28.13 213.98-26.9 213.98-24.9 213.98-22.9 215.53-21.7 217.08-20.5 220.28-19.1L220.28-19.1Q222.38-18.2 223.56-17.55 224.73-16.9 226.26-15.73 227.78-14.55 228.51-12.93 229.23-11.3 229.23-9.2ZM240.83-33.7L240.83 0 235.73 0 235.73-33.7 240.83-33.7ZM265.93-18.35L265.93-14.05 253.68-14.05 253.68 0 248.53 0 248.53-33.7 267.63-33.7 267.63-29.4 253.68-29.4 253.68-18.35 265.93-18.35ZM287.28-12.55L287.28 0 282.13 0 282.13-12.55 270.73-33.7 276.63-33.7 279.03-28.75Q281.33-24.1 282.73-21.1 284.13-18.1 284.38-17.4L284.38-17.4 284.68-16.75Q285.13-18.25 290.48-28.75L290.48-28.75 292.93-33.7 298.83-33.7 287.28-12.55Z" opacity="1" transform="matrix(1,0,0,1,0,0)" fill="#8bc53f" class="undefined-text-0" data-fill-palette-color="primary" id="text-0"></path></svg></g></svg></g></svg></g></svg></g><g><svg viewBox="0 0 133.42273724456163 121.89237723577234" height="121.89237723577234" width="133.42273724456163"><g><svg xmlns="http://www.w3.org/2000/svg" xmlns:xlink="http://www.w3.org/1999/xlink" version="1.1" x="0" y="0" viewBox="9 13 81 74" enable-background="new 0 0 100 100" xml:space="preserve" height="121.89237723577234" width="133.42273724456163" class="icon-icon-0" data-fill-palette-color="accent" id="icon-0"><g fill="#5d9943" data-fill-palette-color="accent"><path d="M75.444 87H23.556C15.529 87 9 80.471 9 72.444V27.556C9 19.529 15.529 13 23.556 13h51.889C83.471 13 90 19.529 90 27.556v44.889C90 80.471 83.471 87 75.444 87zM23.556 16C17.184 16 12 21.184 12 27.556v44.889C12 78.816 17.184 84 23.556 84h51.889C81.816 84 87 78.816 87 72.444V27.556C87 21.184 81.816 16 75.444 16H23.556z" fill="#5d9943" data-fill-palette-color="accent"></path><polygon points="28.309,72.843 22.357,69.157 40.404,40.027 57.95,46.766 71.493,27.955 77.175,32.045 60.478,55.234    43.303,48.639  " fill="#5d9943" data-fill-palette-color="accent"></polygon></g></svg></g></svg></g></svg></g></svg><rect width="395.52" height="89.29026110838619" fill="none" stroke="none" visibility="hidden"></rect></g></svg></g></svg>